<?xml version="1.0" encoding="UTF-8" standalone="no"?>
<svg
   xmlns:dc="http://purl.org/dc/elements/1.1/"
   xmlns:cc="http://creativecommons.org/ns#"
   xmlns:rdf="http://www.w3.org/1999/02/22-rdf-syntax-ns#"
   xmlns:svg="http://www.w3.org/2000/svg"
   xmlns="http://www.w3.org/2000/svg"
   xmlns:xlink="http://www.w3.org/1999/xlink"
   xmlns:sodipodi="http://sodipodi.sourceforge.net/DTD/sodipodi-0.dtd"
   xmlns:inkscape="http://www.inkscape.org/namespaces/inkscape"
   width="330"
   height="330"
   version="1.1"
   viewBox="0 0 87.312 87.313"
   id="svg240"
   sodipodi:docname="nov-2018-logo.svg"
   inkscape:export-filename="D:\workspace\ebabel-games\ebabel-games\assets\thomas-amar\nov-2018-logo.png"
   inkscape:export-xdpi="78.550003"
   inkscape:export-ydpi="78.550003"
   inkscape:version="0.92.3 (2405546, 2018-03-11)">
  <metadata
     id="metadata244">
    <rdf:RDF>
      <cc:Work
         rdf:about="">
        <dc:format>image/svg+xml</dc:format>
        <dc:type
           rdf:resource="http://purl.org/dc/dcmitype/StillImage" />
      </cc:Work>
    </rdf:RDF>
  </metadata>
  <sodipodi:namedview
     pagecolor="#ffffff"
     bordercolor="#666666"
     borderopacity="1"
     objecttolerance="10"
     gridtolerance="10"
     guidetolerance="10"
     inkscape:pageopacity="0"
     inkscape:pageshadow="2"
     inkscape:window-width="979"
     inkscape:window-height="778"
     id="namedview242"
     showgrid="false"
     inkscape:zoom="0.71515152"
     inkscape:cx="154.96378"
     inkscape:cy="165"
     inkscape:window-x="746"
     inkscape:window-y="103"
     inkscape:window-maximized="0"
     inkscape:current-layer="svg240" />
  <defs
     id="defs44">
    <linearGradient
       id="b"
       x1="-34.131"
       x2="-34.131"
       y1="141.42"
       y2="173.7"
       gradientTransform="matrix(3.7559,0,0,4.1379,232.54,-436.01)"
       gradientUnits="userSpaceOnUse">
      <stop
         stop-color="#168db5"
         offset="0"
         id="stop2" />
      <stop
         stop-color="#b6e6f7"
         offset="1"
         id="stop4" />
    </linearGradient>
    <filter
       id="c"
       x="-.5352"
       y="-.5352"
       width="2.0704"
       height="2.0704"
       color-interpolation-filters="sRGB">
      <feGaussianBlur
         stdDeviation="11.38381"
         id="feGaussianBlur7" />
    </filter>
    <filter
       id="a"
       x="-.82228"
       y="-.91821"
       width="2.6446"
       height="2.8364"
       color-interpolation-filters="sRGB">
      <feGaussianBlur
         stdDeviation="3.0676194"
         id="feGaussianBlur10" />
    </filter>
    <filter
       id="d"
       x="-.011793"
       y="-.029196"
       width="1.0236"
       height="1.0584"
       color-interpolation-filters="sRGB">
      <feGaussianBlur
         stdDeviation="3.9169729"
         id="feGaussianBlur13" />
    </filter>
    <linearGradient
       id="k"
       x1="105.43"
       x2="105.43"
       y1="144.17"
       y2="152.66"
       gradientTransform="matrix(2,0,0,1,-105,4.2333)"
       gradientUnits="userSpaceOnUse">
      <stop
         stop-color="#ff5b3d"
         offset="0"
         id="stop16" />
      <stop
         stop-color="#ffc63d"
         offset=".5"
         id="stop18" />
      <stop
         stop-color="#36a6cb"
         offset="1"
         id="stop20" />
    </linearGradient>
    <filter
       id="h"
       x="-.0045832"
       y="-.11458"
       width="1.0092"
       height="1.2292"
       color-interpolation-filters="sRGB">
      <feGaussianBlur
         stdDeviation="0.4042217"
         id="feGaussianBlur23" />
    </filter>
    <filter
       id="g"
       x="-.059783"
       y="-.062686"
       width="1.1196"
       height="1.1254"
       color-interpolation-filters="sRGB">
      <feGaussianBlur
         stdDeviation="0.34650592"
         id="feGaussianBlur26" />
    </filter>
    <linearGradient
       id="j"
       x1="145.28"
       x2="131.74"
       y1="265.62"
       y2="258.02"
       gradientUnits="userSpaceOnUse">
      <stop
         stop-color="#ff3a16"
         offset="0"
         id="stop29" />
      <stop
         stop-color="#ffdc88"
         offset="1"
         id="stop31" />
    </linearGradient>
    <linearGradient
       id="l"
       x1="133.62"
       x2="145.11"
       y1="258.19"
       y2="266.36"
       gradientUnits="userSpaceOnUse">
      <stop
         stop-color="#ffdc88"
         offset="0"
         id="stop34" />
      <stop
         stop-color="#ffbb16"
         offset="1"
         id="stop36" />
    </linearGradient>
    <linearGradient
       id="f"
       x1="145.28"
       x2="131.74"
       y1="265.62"
       y2="258.02"
       gradientUnits="userSpaceOnUse"
       xlink:href="#j" />
    <linearGradient
       id="e"
       x1="133.62"
       x2="145.11"
       y1="258.19"
       y2="266.36"
       gradientUnits="userSpaceOnUse"
       xlink:href="#l" />
    <filter
       id="i"
       x="-.030251"
       y="-.01989"
       width="1.0605"
       height="1.0398"
       color-interpolation-filters="sRGB">
      <feGaussianBlur
         stdDeviation="0.53272381"
         id="feGaussianBlur41" />
    </filter>
    <linearGradient
       inkscape:collect="always"
       xlink:href="#j"
       id="linearGradient935"
       gradientUnits="userSpaceOnUse"
       x1="145.28"
       y1="265.62"
       x2="131.74"
       y2="258.02" />
    <linearGradient
       inkscape:collect="always"
       xlink:href="#l"
       id="linearGradient937"
       gradientUnits="userSpaceOnUse"
       x1="133.62"
       y1="258.19"
       x2="145.11"
       y2="266.36" />
    <linearGradient
       inkscape:collect="always"
       xlink:href="#j"
       id="linearGradient939"
       gradientUnits="userSpaceOnUse"
       x1="145.28"
       y1="265.62"
       x2="131.74"
       y2="258.02" />
    <linearGradient
       inkscape:collect="always"
       xlink:href="#l"
       id="linearGradient941"
       gradientUnits="userSpaceOnUse"
       x1="133.62"
       y1="258.19"
       x2="145.11"
       y2="266.36" />
    <linearGradient
       inkscape:collect="always"
       xlink:href="#j"
       id="linearGradient943"
       gradientUnits="userSpaceOnUse"
       x1="145.28"
       y1="265.62"
       x2="131.74"
       y2="258.02" />
    <linearGradient
       inkscape:collect="always"
       xlink:href="#l"
       id="linearGradient945"
       gradientUnits="userSpaceOnUse"
       x1="133.62"
       y1="258.19"
       x2="145.11"
       y2="266.36" />
    <linearGradient
       inkscape:collect="always"
       xlink:href="#j"
       id="linearGradient947"
       gradientUnits="userSpaceOnUse"
       x1="145.28"
       y1="265.62"
       x2="131.74"
       y2="258.02" />
    <linearGradient
       inkscape:collect="always"
       xlink:href="#l"
       id="linearGradient949"
       gradientUnits="userSpaceOnUse"
       x1="133.62"
       y1="258.19"
       x2="145.11"
       y2="266.36" />
  </defs>
  <g
     id="g48"
     transform="matrix(0.41249,0,0,0.55,7.9581e-7,-76.04)">
    <rect
       style="fill:url(#b)"
       id="rect46"
       height="158.75"
       width="211.67"
       y="138.25"
       x="-2.5431e-006" />
  </g>
  <path
     style="opacity:0.41000001;fill:#b6e5f7;filter:url(#d)"
     inkscape:connector-curvature="0"
     id="path50"
     d="m 498.15,272.19 c -21.692,-0.73013 -43.106,7.067 -61.896,22.537 -15.153,12.558 -28.158,29.764 -38.074,50.371 -40.415,-15.838 -83.346,-12.171 -108.25,11.455 -0.15214,-0.13265 -0.30448,-0.26481 -0.45704,-0.39648 -36.576,-30.113 -81.639,-30.113 -118.21,0 -15.746,13.044 -29.166,31.1 -39.213,52.758 -24.83,-3.773 -49.861,3.7629 -71.502,21.527 -36.576,30.112 -59.107,85.762 -59.107,145.99 260.11,54.119 533.83,-32.75 797.14,-36.428 -2.6e-4,-60.225 -22.532,-115.87 -59.107,-145.99 -25.939,-21.266 -56.567,-27.715 -85.709,-18.047 -16.868,-9.754 -35.087,-13.822 -53.238,-11.887 -10.341,-28.966 -26.334,-53.05 -46.053,-69.354 -17.152,-14.121 -36.518,-21.871 -56.318,-22.537 z"
     transform="matrix(0.13394,0,0,-0.13394,-7.1991,72.03)" />
  <g
     style="opacity:0.92900002;filter:url(#h)"
     id="g54"
     transform="matrix(0.41249,0,0,3.8571,0.34375,-518.13)">
    <rect
       style="fill:url(#k)"
       id="rect52"
       height="8.4666996"
       width="211.67"
       y="148.5"
       x="-0.83333999" />
  </g>
  <g
     style="opacity:0.422;fill:#333333;filter:url(#i)"
     id="g102"
     transform="matrix(0.92934,0,0,0.96982,-101.47,-196.82)">
    <path
       inkscape:connector-curvature="0"
       id="path56"
       d="m 134.62,248.52 c -6.5066,4.7998 -11.662,11.286 -15.636,19.248 -4.0132,8.0422 1.7645,12.677 5.3209,15.961 0,0 1.5618,-8.6703 2.9677,-12.785 2.1678,-6.3446 7.6828,-11.377 8.3514,-18.122 0.14597,-1.4725 -1.0045,-4.3018 -1.0045,-4.3018 z" />
    <path
       inkscape:connector-curvature="0"
       id="path58"
       d="m 134.62,248.52 c -4.3794,7.184 -6.9327,15.358 -7.8876,24.4 -0.96449,9.1324 5.9645,10.984 10.377,12.523 0,0 -1.518,-8.6798 -1.6235,-13.079 -0.16265,-6.7837 3.2199,-13.765 1.5334,-20.287 -0.36816,-1.4238 -2.3994,-3.5562 -2.3994,-3.5562 z" />
    <path
       inkscape:connector-curvature="0"
       id="path60"
       d="m 134.62,248.52 c -2.5562,8.1982 -3.1178,16.828 -1.9334,25.836 1.1963,9.0985 8.3206,8.8948 12.941,9.1127 0,0 -3.4888,-7.9477 -4.6157,-12.167 -1.7378,-6.5058 -0.097,-14.221 -3.2458,-20.037 -0.68737,-1.2695 -3.1463,-2.7453 -3.1463,-2.7453 z" />
    <path
       inkscape:connector-curvature="0"
       id="path62"
       d="m 134.62,248.52 c -0.55887,8.6538 0.90952,17.151 4.1524,25.512 3.2755,8.4445 10.11,6.1996 14.624,5.0817 0,0 -5.2217,-6.6739 -7.2934,-10.425 -3.1944,-5.7845 -3.4074,-13.709 -7.8039,-18.421 -0.95976,-1.0286 -3.6787,-1.7472 -3.6787,-1.7472 z" />
    <path
       inkscape:connector-curvature="0"
       id="path64"
       d="m 134.62,248.52 c 1.4766,8.5196 4.8749,16.305 9.9553,23.449 5.1315,7.2151 11.21,3.082 15.309,0.70436 0,0 -6.5989,-4.9453 -9.4741,-7.9733 -4.4334,-4.6691 -6.4855,-12.262 -11.83,-15.55 -1.1667,-0.71758 -3.9605,-0.63006 -3.9605,-0.63006 z" />
    <path
       style="opacity:1"
       inkscape:connector-curvature="0"
       id="path66"
       d="m 148.65,239.95 a 10.341,11.819 0 0 1 -10.341,11.819 10.341,11.819 0 0 1 -10.341,-11.819 10.341,11.819 0 0 1 10.341,-11.819 10.341,11.819 0 0 1 10.341,11.819 z" />
    <path
       style="opacity:0.92400004"
       inkscape:connector-curvature="0"
       id="path68"
       d="m 143.63,247.01 c -2.9476,5.5531 -8.0586,5.2465 -10.731,0 3.577,1.3781 7.1541,1.124 10.731,0 z" />
    <path
       style="opacity:0.92400004"
       inkscape:connector-curvature="0"
       id="path70"
       d="m 134.51,242.37 a 3.8038,2.0921 0 0 0 -3.6356,1.4773 3.8038,2.0921 0 0 0 3.4243,1.1855 3.8038,2.0921 0 0 0 3.6358,-1.4773 3.8038,2.0921 0 0 0 -3.4246,-1.1855 z" />
    <path
       style="opacity:0.92400004"
       inkscape:connector-curvature="0"
       id="path72"
       d="m 135.58,243.7 a 1.1698,1.1698 0 0 1 -1.1698,1.1698 1.1698,1.1698 0 0 1 -1.1698,-1.1698 1.1698,1.1698 0 0 1 1.1698,-1.1698 1.1698,1.1698 0 0 1 1.1698,1.1698 z" />
    <path
       style="opacity:0.92400004"
       inkscape:connector-curvature="0"
       id="path74"
       d="m 135.34,243.7 a 0.92858,0.92858 0 0 1 -0.92858,0.92858 0.92858,0.92858 0 0 1 -0.92858,-0.92858 0.92858,0.92858 0 0 1 0.92858,-0.92857 A 0.92858,0.92858 0 0 1 135.34,243.7 Z" />
    <path
       style="opacity:0.92400004"
       inkscape:connector-curvature="0"
       id="path76"
       d="m 142.1,242.37 a 3.8038,2.0921 0 0 1 3.6356,1.4773 3.8038,2.0921 0 0 1 -3.4243,1.1855 3.8038,2.0921 0 0 1 -3.6358,-1.4773 3.8038,2.0921 0 0 1 3.4246,-1.1855 z" />
    <path
       style="opacity:0.92400004"
       inkscape:connector-curvature="0"
       id="path78"
       d="m 143.38,243.7 a 1.1698,1.1698 0 0 1 -1.1698,1.1698 1.1698,1.1698 0 0 1 -1.1698,-1.1698 1.1698,1.1698 0 0 1 1.1698,-1.1698 1.1698,1.1698 0 0 1 1.1698,1.1698 z" />
    <path
       style="opacity:0.92400004"
       inkscape:connector-curvature="0"
       id="path80"
       d="m 143.13,243.7 a 0.92858,0.92858 0 0 1 -0.92858,0.92858 0.92858,0.92858 0 0 1 -0.92858,-0.92858 0.92858,0.92858 0 0 1 0.92858,-0.92857 A 0.92858,0.92858 0 0 1 143.13,243.7 Z" />
    <path
       inkscape:connector-curvature="0"
       id="path82"
       d="m 136.24,228.74 c 3.8914,-3.521 8.5475,-5.9109 13.873,-7.3108 5.3791,-1.4139 7.1388,3.0392 8.4749,5.8446 0,0 -5.3412,-0.27591 -7.9861,0.0259 -4.0783,0.46545 -7.9416,3.3061 -12.007,2.7357 -0.88735,-0.12452 -2.3553,-1.2955 -2.3553,-1.2955 z" />
    <path
       inkscape:connector-curvature="0"
       id="path84"
       d="m 136.24,228.74 c 4.9367,-1.7803 10.151,-2.224 15.61,-1.4975 5.5132,0.73376 5.4508,5.5216 5.622,8.6242 0,0 -4.8367,-2.2828 -7.3982,-3.0074 -3.9497,-1.1175 -8.6022,0.0441 -12.146,-2.0266 -0.77366,-0.45203 -1.6872,-2.0926 -1.6872,-2.0926 z" />
    <path
       inkscape:connector-curvature="0"
       id="path86"
       d="m 136.24,228.74 c 5.2292,-0.44197 10.381,0.47922 15.465,2.5936 5.1354,2.1357 3.836,6.7442 3.1984,9.7854 0,0 -4.0811,-3.4568 -6.3678,-4.8198 -3.5259,-2.1016 -8.3205,-2.1838 -11.208,-5.1013 -0.6303,-0.63687 -1.0881,-2.458 -1.0881,-2.458 z" />
    <path
       inkscape:connector-curvature="0"
       id="path88"
       d="m 136.24,228.74 c 5.1654,0.92652 9.9034,3.1497 14.267,6.508 4.4077,3.392 1.9598,7.5073 0.55672,10.28 0,0 -3.0474,-4.3953 -4.9033,-6.3036 -2.8618,-2.9426 -7.4718,-4.2629 -9.5057,-7.8283 -0.44397,-0.77831 -0.41488,-2.6559 -0.41488,-2.6559 z" />
    <path
       inkscape:connector-curvature="0"
       id="path90"
       d="m 136.24,228.74 c 4.7496,2.2319 8.7508,5.6056 12.097,9.9789 3.3796,4.4173 -0.05,7.7587 -2.1229,10.074 0,0 -1.8059,-5.0342 -3.1047,-7.3579 -2.0027,-3.583 -6.1139,-6.0515 -7.1557,-10.022 -0.2274,-0.8667 0.28665,-2.6728 0.28665,-2.6728 z" />
    <path
       inkscape:connector-curvature="0"
       id="path92"
       d="m 140.3,229.8 c -3.757,-3.664 -8.3205,-6.2264 -13.59,-7.8244 -5.3224,-1.6141 -7.2475,2.7702 -8.6875,5.5237 0,0 5.3478,-0.076 7.9795,0.32452 4.058,0.6176 7.8124,3.6008 11.896,3.1827 0.89138,-0.0913 2.4021,-1.2066 2.4021,-1.2066 z" />
    <path
       inkscape:connector-curvature="0"
       id="path94"
       d="m 140.3,229.8 c -4.8666,-1.9637 -10.061,-2.602 -15.543,-2.0801 -5.5368,0.52712 -5.6535,5.3139 -5.9406,8.408 0,0 4.9187,-2.1003 7.5055,-2.7287 3.9887,-0.96901 8.5945,0.36572 12.214,-1.5711 0.79002,-0.4228 1.7643,-2.0281 1.7643,-2.0281 z" />
    <path
       inkscape:connector-curvature="0"
       id="path96"
       d="m 140.3,229.8 c -5.209,-0.63717 -10.392,0.0907 -15.552,2.0136 -5.2117,1.9422 -4.0855,6.5961 -3.562,9.659 0,0 4.2075,-3.3018 6.5435,-4.5783 3.602,-1.9684 8.3963,-1.8712 11.391,-4.6787 0.65368,-0.61285 1.1793,-2.4156 1.1793,-2.4156 z" />
    <path
       inkscape:connector-curvature="0"
       id="path98"
       d="m 140.3,229.8 c -5.1965,0.73273 -10.014,2.7772 -14.501,5.97 -4.5314,3.2249 -2.2391,7.4287 -0.94068,10.252 0,0 3.2096,-4.2783 5.1356,-6.1159 2.9698,-2.8336 7.6259,-3.9805 9.7918,-7.4674 0.47276,-0.76116 0.51389,-2.6386 0.51389,-2.6386 z" />
    <path
       inkscape:connector-curvature="0"
       id="path100"
       d="m 140.3,229.8 c -4.8298,2.0527 -8.9542,5.2745 -12.461,9.5196 -3.5424,4.2878 -0.24008,7.7551 1.7447,10.146 0,0 1.9929,-4.9632 3.3777,-7.2367 2.1352,-3.5056 6.3358,-5.8186 7.5254,-9.7472 0.25965,-0.85759 -0.18652,-2.6816 -0.18652,-2.6816 z" />
  </g>
  <g
     id="g162"
     transform="matrix(1.3392,0,0,1.3392,-162.76,15.63)">
    <g
       id="g114"
       transform="matrix(-0.67566,0.90065,0.81083,0.75051,304.21,-51.588)">
      <path
         style="fill:#ffbb16"
         inkscape:connector-curvature="0"
         id="path104"
         d="m 146.24,-79.537 c 5.2956,-1.5794 10.804,-1.737 16.5,-0.65 5.7528,1.0979 5.4037,6.1279 5.4,9.4 0,0 -4.9499,-2.6864 -7.6,-3.6 -4.0863,-1.4087 -9.0465,-0.46304 -12.65,-2.85 -0.78662,-0.52106 -1.65,-2.3 -1.65,-2.3 z" />
      <path
         style="fill:#ff3a16"
         inkscape:connector-curvature="0"
         id="path106"
         d="m 146.24,-79.537 c 5.4988,0.54897 10.655,2.4943 15.512,5.6619 4.9055,3.1995 2.6732,7.7205 1.4277,10.746 0,0 -3.5597,-4.3643 -5.6646,-6.2155 -3.2457,-2.8545 -8.1936,-3.8624 -10.621,-7.4385 -0.52995,-0.78066 -0.6534,-2.7542 -0.6534,-2.7542 z" />
      <path
         style="fill:#ffc63d"
         inkscape:connector-curvature="0"
         id="path108"
         d="m 146.24,-79.537 c 5.1693,1.9534 9.6465,5.1671 13.518,9.4837 3.9102,4.3601 0.58388,8.1493 -1.4023,10.75 0,0 -2.3088,-5.1369 -3.863,-7.4698 -2.3964,-3.5972 -6.9148,-5.8514 -8.3342,-9.9341 -0.30985,-0.89122 0.0817,-2.8295 0.0817,-2.8295 z" />
      <path
         style="fill:#ff5b3d"
         inkscape:connector-curvature="0"
         id="path110"
         d="m 146.24,-79.537 c 4.4876,3.2248 7.9804,7.4877 10.603,12.659 2.6485,5.2236 -1.5452,8.0227 -4.1367,10.02 0,0 -0.90064,-5.5594 -1.798,-8.2151 -1.3837,-4.0949 -5.1647,-7.4417 -5.4791,-11.753 -0.0686,-0.94104 0.81123,-2.7119 0.81123,-2.7119 z" />
      <path
         style="fill:#ffd060"
         inkscape:connector-curvature="0"
         id="path112"
         d="m 146.24,-79.537 c 3.5,4.2764 5.7706,9.298 6.9649,14.972 1.2063,5.7311 -3.569,7.3494 -6.5892,8.6082 0,0 0.56893,-5.6031 0.38948,-8.4005 -0.27668,-4.3135 -3.0627,-8.5249 -2.2506,-12.77 0.1773,-0.92673 1.4855,-2.4095 1.4855,-2.4095 z" />
    </g>
    <g
       id="g160"
       transform="matrix(0.70913,0,0,0.70913,40.71,57.155)">
      <ellipse
         style="fill:#ffdc88"
         id="ellipse116"
         ry="12.445"
         rx="10.889"
         cy="-60.808998"
         cx="145.19" />
      <path
         style="opacity:0.92400004;fill:#ffffff"
         inkscape:connector-curvature="0"
         id="path118"
         d="m 150.8,-53.375 c -3.1038,5.8475 -8.4858,5.5246 -11.3,-10e-7 3.7667,1.4511 7.5333,1.1836 11.3,10e-7 z" />
      <path
         style="opacity:0.92400004;fill:#ffffff;stroke:#ffbb16;stroke-width:0.11854"
         inkscape:connector-curvature="0"
         id="path120"
         d="m 141.2,-58.265 a 4.0054,2.203 0 0 0 -3.8283,1.5557 4.0054,2.203 0 0 0 3.6058,1.2483 4.0054,2.203 0 0 0 3.8286,-1.5557 4.0054,2.203 0 0 0 -3.6061,-1.2483 z" />
      <g
         id="g126"
         transform="translate(0.16875,0.01875)">
        <circle
           style="opacity:0.92400004;fill:#ff3a16"
           id="circle122"
           r="1.2318"
           cy="-56.882"
           cx="140.92" />
        <circle
           style="opacity:0.92400004"
           id="circle124"
           r="0.97781003"
           cy="-56.882"
           cx="140.92" />
      </g>
      <path
         style="opacity:0.92400004;fill:#ffffff;stroke:#ffbb16;stroke-width:0.11854"
         inkscape:connector-curvature="0"
         id="path128"
         d="m 149.19,-58.265 a 4.0054,2.203 0 0 1 3.8283,1.5557 4.0054,2.203 0 0 1 -3.6058,1.2483 4.0054,2.203 0 0 1 -3.8286,-1.5557 4.0054,2.203 0 0 1 3.6061,-1.2483 z" />
      <g
         id="g134"
         transform="translate(8.3801,0.01875)">
        <circle
           style="opacity:0.92400004;fill:#ff3a16"
           id="circle130"
           r="1.2318"
           cy="-56.882"
           cx="140.92" />
        <circle
           style="opacity:0.92400004"
           id="circle132"
           r="0.97781003"
           cy="-56.882"
           cx="140.92" />
      </g>
      <g
         id="g146"
         transform="matrix(-0.90234,0.43102,0.43102,0.90234,309.25,-63.877)">
        <path
           style="fill:#ffc4b9"
           inkscape:connector-curvature="0"
           id="path136"
           d="m 146.24,-79.537 c -5.2956,-1.5794 -10.804,-1.737 -16.5,-0.65 -5.7528,1.0979 -5.4037,6.1279 -5.4,9.4 0,0 4.9499,-2.6864 7.6,-3.6 4.0863,-1.4087 9.0465,-0.46304 12.65,-2.85 0.78662,-0.52106 1.65,-2.3 1.65,-2.3 z" />
        <path
           style="fill:#ffebb9"
           inkscape:connector-curvature="0"
           id="path138"
           d="m 146.24,-79.537 c -5.4988,0.54897 -10.655,2.4943 -15.512,5.6619 -4.9055,3.1995 -2.6732,7.7205 -1.4277,10.746 0,0 3.5597,-4.3643 5.6646,-6.2155 3.2457,-2.8545 8.1936,-3.8624 10.621,-7.4385 0.52995,-0.78066 0.6534,-2.7542 0.6534,-2.7542 z" />
        <path
           style="fill:#ff9a88"
           inkscape:connector-curvature="0"
           id="path140"
           d="m 146.24,-79.537 c -5.1693,1.9534 -9.6465,5.1671 -13.518,9.4837 -3.9102,4.3601 -0.58388,8.1493 1.4023,10.75 0,0 2.3088,-5.1369 3.863,-7.4698 2.3964,-3.5972 6.9148,-5.8514 8.3342,-9.9341 0.30985,-0.89122 -0.0817,-2.8295 -0.0817,-2.8295 z" />
        <path
           style="fill:#ffdc88"
           inkscape:connector-curvature="0"
           id="path142"
           d="m 146.24,-79.537 c -4.4876,3.2248 -7.9804,7.4877 -10.603,12.659 -2.6485,5.2236 1.5452,8.0227 4.1367,10.02 0,0 0.90064,-5.5594 1.798,-8.2151 1.3837,-4.0949 5.1647,-7.4417 5.4791,-11.753 0.0686,-0.94104 -0.81123,-2.7119 -0.81123,-2.7119 z" />
        <path
           style="fill:#ff7960"
           inkscape:connector-curvature="0"
           id="path144"
           d="m 146.24,-79.537 c -3.5,4.2764 -5.7706,9.298 -6.9649,14.972 -1.2063,5.7311 3.569,7.3494 6.5892,8.6082 0,0 -0.56893,-5.6031 -0.38948,-8.4005 0.27668,-4.3135 3.0627,-8.5249 2.2506,-12.77 -0.1773,-0.92673 -1.4855,-2.4095 -1.4855,-2.4095 z" />
      </g>
      <g
         id="g158"
         transform="rotate(27.675,130.44,-73.374)">
        <path
           style="fill:#ffc4b9"
           inkscape:connector-curvature="0"
           id="path148"
           d="m 146.24,-79.537 c -5.2956,-1.5794 -10.804,-1.737 -16.5,-0.65 -5.7528,1.0979 -5.4037,6.1279 -5.4,9.4 0,0 4.9499,-2.6864 7.6,-3.6 4.0863,-1.4087 9.0465,-0.46304 12.65,-2.85 0.78662,-0.52106 1.65,-2.3 1.65,-2.3 z" />
        <path
           style="fill:#ffebb9"
           inkscape:connector-curvature="0"
           id="path150"
           d="m 146.24,-79.537 c -5.4988,0.54897 -10.655,2.4943 -15.512,5.6619 -4.9055,3.1995 -2.6732,7.7205 -1.4277,10.746 0,0 3.5597,-4.3643 5.6646,-6.2155 3.2457,-2.8545 8.1936,-3.8624 10.621,-7.4385 0.52995,-0.78066 0.6534,-2.7542 0.6534,-2.7542 z" />
        <path
           style="fill:#ff9a88"
           inkscape:connector-curvature="0"
           id="path152"
           d="m 146.24,-79.537 c -5.1693,1.9534 -9.6465,5.1671 -13.518,9.4837 -3.9102,4.3601 -0.58388,8.1493 1.4023,10.75 0,0 2.3088,-5.1369 3.863,-7.4698 2.3964,-3.5972 6.9148,-5.8514 8.3342,-9.9341 0.30985,-0.89122 -0.0817,-2.8295 -0.0817,-2.8295 z" />
        <path
           style="fill:#ffdc88"
           inkscape:connector-curvature="0"
           id="path154"
           d="m 146.24,-79.537 c -4.4876,3.2248 -7.9804,7.4877 -10.603,12.659 -2.6485,5.2236 1.5452,8.0227 4.1367,10.02 0,0 0.90064,-5.5594 1.798,-8.2151 1.3837,-4.0949 5.1647,-7.4417 5.4791,-11.753 0.0686,-0.94104 -0.81123,-2.7119 -0.81123,-2.7119 z" />
        <path
           style="fill:#ff7960"
           inkscape:connector-curvature="0"
           id="path156"
           d="m 146.24,-79.537 c -3.5,4.2764 -5.7706,9.298 -6.9649,14.972 -1.2063,5.7311 3.569,7.3494 6.5892,8.6082 0,0 -0.56893,-5.6031 -0.38948,-8.4005 0.27668,-4.3135 3.0627,-8.5249 2.2506,-12.77 -0.1773,-0.92673 -1.4855,-2.4095 -1.4855,-2.4095 z" />
      </g>
    </g>
  </g>
  <g
     style="opacity:0.96300001"
     id="g184"
     transform="translate(0.37798,-208.3671)">
    <circle
       style="fill:#ffbb16;filter:url(#c)"
       id="circle164"
       r="25.524"
       cy="34.603001"
       cx="174.92999"
       transform="matrix(0.41562,0,0,0.41562,-2.1097,211.6)" />
    <g
       style="stroke-width:0.41562"
       id="g178">
      <circle
         style="fill:#ffbb16"
         id="circle166"
         r="10.608"
         cy="225.98"
         cx="70.595001" />
      <path
         style="fill:#ffebb9"
         inkscape:connector-curvature="0"
         id="path168"
         d="m 73.238,232.95 c -0.59691,1.3416 -2.1254,2.1466 -4.0096,2.1118 -1.8842,-0.0348 -3.838,-0.90405 -5.1254,-2.2804 -1.2873,-1.3763 -1.7959,-3.5505 -1.199,-4.8922 3.1448,3.2068 6.4587,6.381 10.334,5.0606 z" />
      <circle
         style="fill:#ffebb9"
         id="circle170"
         r="2.2217"
         cy="215.05"
         cx="95.212997"
         transform="rotate(7.3647)" />
      <circle
         id="circle172"
         r="0.99972999"
         cy="234.78999"
         cx="21.882999"
         transform="rotate(-11.07)" />
      <circle
         style="fill:#ffebb9"
         id="circle174"
         r="2.2217"
         cy="227.89999"
         cx="73.860001"
         transform="rotate(0.27881)" />
      <circle
         id="circle176"
         r="0.99972999"
         cy="228.56"
         cx="73.419998"
         transform="rotate(0.27881)" />
    </g>
    <ellipse
       style="fill:#ff3a16;filter:url(#a)"
       id="ellipse180"
       ry="4.0089998"
       rx="4.4768"
       cy="53.451"
       cx="186.22"
       transform="matrix(0.33117,0,0,0.33117,13.227,216.08)" />
    <ellipse
       style="fill:#ff3a16;filter:url(#a)"
       id="ellipse182"
       ry="4.0089998"
       rx="4.4768"
       cy="53.451"
       cx="186.22"
       transform="matrix(0.33117,0,0,0.33117,0.11906,208.86)" />
  </g>
  <g
     id="g194"
     transform="matrix(2.1599,0.60926,-0.60926,2.1599,-75.057,32.55)">
    <g
       id="g192"
       transform="translate(-0.65045,0.88352)">
      <path
         style="fill:#1a1a1a;filter:url(#g)"
         inkscape:connector-curvature="0"
         id="path186"
         d="m 144.43,267.37 c -0.509,0.54321 -3.8204,-1.1044 -4.5515,-0.96449 -0.73169,0.14005 -3.2029,2.8943 -3.8774,2.5778 -0.67391,-0.31623 -0.13019,-3.9747 -0.48922,-4.6268 -0.3593,-0.6526 -3.7424,-2.1518 -3.6498,-2.891 0.0925,-0.73864 3.7399,-1.3521 4.2492,-1.895 0.50963,-0.54338 0.89,-4.2242 1.6216,-4.3646 0.73108,-0.14028 2.4416,3.1391 3.1154,3.4556 0.67427,0.31677 4.2925,-0.45891 4.6521,0.19353 0.35933,0.65195 -2.231,3.2921 -2.3238,4.0307 -0.0929,0.73915 1.7629,3.9406 1.2535,4.4842 z"
         transform="matrix(0.41092,0.079005,-0.079005,0.41092,23.706,-120.38)" />
      <path
         inkscape:connector-curvature="0"
         style="fill:url(#linearGradient935)"
         id="path188"
         d="m 144.43,267.37 c -0.509,0.54321 -3.8204,-1.1044 -4.5515,-0.96449 -0.73169,0.14005 -3.2029,2.8943 -3.8774,2.5778 -0.67391,-0.31623 -0.13019,-3.9747 -0.48922,-4.6268 -0.3593,-0.6526 -3.7424,-2.1518 -3.6498,-2.891 0.0925,-0.73864 3.7399,-1.3521 4.2492,-1.895 0.50963,-0.54338 0.89,-4.2242 1.6216,-4.3646 0.73108,-0.14028 2.4416,3.1391 3.1154,3.4556 0.67427,0.31677 4.2925,-0.45891 4.6521,0.19353 0.35933,0.65195 -2.231,3.2921 -2.3238,4.0307 -0.0929,0.73915 1.7629,3.9406 1.2535,4.4842 z"
         transform="matrix(0.41092,0.079005,-0.079005,0.41092,23.552,-120.62)" />
      <path
         inkscape:connector-curvature="0"
         style="fill:url(#linearGradient937)"
         id="path190"
         d="m 144.43,267.37 c -0.509,0.54321 -3.8204,-1.1044 -4.5515,-0.96449 -0.73169,0.14005 -3.2029,2.8943 -3.8774,2.5778 -0.67391,-0.31623 -0.13019,-3.9747 -0.48922,-4.6268 -0.3593,-0.6526 -3.7424,-2.1518 -3.6498,-2.891 0.0925,-0.73864 3.7399,-1.3521 4.2492,-1.895 0.50963,-0.54338 0.89,-4.2242 1.6216,-4.3646 0.73108,-0.14028 2.4416,3.1391 3.1154,3.4556 0.67427,0.31677 4.2925,-0.45891 4.6521,0.19353 0.35933,0.65195 -2.231,3.2921 -2.3238,4.0307 -0.0929,0.73915 1.7629,3.9406 1.2535,4.4842 z"
         transform="matrix(0.3508,0.067447,-0.067447,0.3508,28.882,-103.28)" />
    </g>
  </g>
  <g
     id="g204"
     transform="matrix(1.6597,0.79907,-0.79907,1.6597,-20.395,20.31)">
    <g
       id="g202"
       transform="translate(-0.65045,0.88352)">
      <path
         style="fill:#1a1a1a;filter:url(#g)"
         inkscape:connector-curvature="0"
         id="path196"
         d="m 144.43,267.37 c -0.509,0.54321 -3.8204,-1.1044 -4.5515,-0.96449 -0.73169,0.14005 -3.2029,2.8943 -3.8774,2.5778 -0.67391,-0.31623 -0.13019,-3.9747 -0.48922,-4.6268 -0.3593,-0.6526 -3.7424,-2.1518 -3.6498,-2.891 0.0925,-0.73864 3.7399,-1.3521 4.2492,-1.895 0.50963,-0.54338 0.89,-4.2242 1.6216,-4.3646 0.73108,-0.14028 2.4416,3.1391 3.1154,3.4556 0.67427,0.31677 4.2925,-0.45891 4.6521,0.19353 0.35933,0.65195 -2.231,3.2921 -2.3238,4.0307 -0.0929,0.73915 1.7629,3.9406 1.2535,4.4842 z"
         transform="matrix(0.41092,0.079005,-0.079005,0.41092,23.706,-120.38)" />
      <path
         inkscape:connector-curvature="0"
         style="fill:url(#linearGradient939)"
         id="path198"
         d="m 144.43,267.37 c -0.509,0.54321 -3.8204,-1.1044 -4.5515,-0.96449 -0.73169,0.14005 -3.2029,2.8943 -3.8774,2.5778 -0.67391,-0.31623 -0.13019,-3.9747 -0.48922,-4.6268 -0.3593,-0.6526 -3.7424,-2.1518 -3.6498,-2.891 0.0925,-0.73864 3.7399,-1.3521 4.2492,-1.895 0.50963,-0.54338 0.89,-4.2242 1.6216,-4.3646 0.73108,-0.14028 2.4416,3.1391 3.1154,3.4556 0.67427,0.31677 4.2925,-0.45891 4.6521,0.19353 0.35933,0.65195 -2.231,3.2921 -2.3238,4.0307 -0.0929,0.73915 1.7629,3.9406 1.2535,4.4842 z"
         transform="matrix(0.41092,0.079005,-0.079005,0.41092,23.552,-120.62)" />
      <path
         inkscape:connector-curvature="0"
         style="fill:url(#linearGradient941)"
         id="path200"
         d="m 144.43,267.37 c -0.509,0.54321 -3.8204,-1.1044 -4.5515,-0.96449 -0.73169,0.14005 -3.2029,2.8943 -3.8774,2.5778 -0.67391,-0.31623 -0.13019,-3.9747 -0.48922,-4.6268 -0.3593,-0.6526 -3.7424,-2.1518 -3.6498,-2.891 0.0925,-0.73864 3.7399,-1.3521 4.2492,-1.895 0.50963,-0.54338 0.89,-4.2242 1.6216,-4.3646 0.73108,-0.14028 2.4416,3.1391 3.1154,3.4556 0.67427,0.31677 4.2925,-0.45891 4.6521,0.19353 0.35933,0.65195 -2.231,3.2921 -2.3238,4.0307 -0.0929,0.73915 1.7629,3.9406 1.2535,4.4842 z"
         transform="matrix(0.3508,0.067447,-0.067447,0.3508,28.882,-103.28)" />
    </g>
  </g>
  <g
     id="g214"
     transform="matrix(2.137,0.68548,-0.68548,2.137,-89.632,37.45)">
    <g
       id="g212"
       transform="translate(-0.65045,0.88352)">
      <path
         style="fill:#1a1a1a;filter:url(#g)"
         inkscape:connector-curvature="0"
         id="path206"
         d="m 144.43,267.37 c -0.509,0.54321 -3.8204,-1.1044 -4.5515,-0.96449 -0.73169,0.14005 -3.2029,2.8943 -3.8774,2.5778 -0.67391,-0.31623 -0.13019,-3.9747 -0.48922,-4.6268 -0.3593,-0.6526 -3.7424,-2.1518 -3.6498,-2.891 0.0925,-0.73864 3.7399,-1.3521 4.2492,-1.895 0.50963,-0.54338 0.89,-4.2242 1.6216,-4.3646 0.73108,-0.14028 2.4416,3.1391 3.1154,3.4556 0.67427,0.31677 4.2925,-0.45891 4.6521,0.19353 0.35933,0.65195 -2.231,3.2921 -2.3238,4.0307 -0.0929,0.73915 1.7629,3.9406 1.2535,4.4842 z"
         transform="matrix(0.41092,0.079005,-0.079005,0.41092,23.706,-120.38)" />
      <path
         inkscape:connector-curvature="0"
         style="fill:url(#linearGradient943)"
         id="path208"
         d="m 144.43,267.37 c -0.509,0.54321 -3.8204,-1.1044 -4.5515,-0.96449 -0.73169,0.14005 -3.2029,2.8943 -3.8774,2.5778 -0.67391,-0.31623 -0.13019,-3.9747 -0.48922,-4.6268 -0.3593,-0.6526 -3.7424,-2.1518 -3.6498,-2.891 0.0925,-0.73864 3.7399,-1.3521 4.2492,-1.895 0.50963,-0.54338 0.89,-4.2242 1.6216,-4.3646 0.73108,-0.14028 2.4416,3.1391 3.1154,3.4556 0.67427,0.31677 4.2925,-0.45891 4.6521,0.19353 0.35933,0.65195 -2.231,3.2921 -2.3238,4.0307 -0.0929,0.73915 1.7629,3.9406 1.2535,4.4842 z"
         transform="matrix(0.41092,0.079005,-0.079005,0.41092,23.552,-120.62)" />
      <path
         inkscape:connector-curvature="0"
         style="fill:url(#linearGradient945)"
         id="path210"
         d="m 144.43,267.37 c -0.509,0.54321 -3.8204,-1.1044 -4.5515,-0.96449 -0.73169,0.14005 -3.2029,2.8943 -3.8774,2.5778 -0.67391,-0.31623 -0.13019,-3.9747 -0.48922,-4.6268 -0.3593,-0.6526 -3.7424,-2.1518 -3.6498,-2.891 0.0925,-0.73864 3.7399,-1.3521 4.2492,-1.895 0.50963,-0.54338 0.89,-4.2242 1.6216,-4.3646 0.73108,-0.14028 2.4416,3.1391 3.1154,3.4556 0.67427,0.31677 4.2925,-0.45891 4.6521,0.19353 0.35933,0.65195 -2.231,3.2921 -2.3238,4.0307 -0.0929,0.73915 1.7629,3.9406 1.2535,4.4842 z"
         transform="matrix(0.3508,0.067447,-0.067447,0.3508,28.882,-103.28)" />
    </g>
  </g>
  <g
     id="g224"
     transform="matrix(2.1924,-0.47935,0.47935,2.1924,-117.49,104.04)">
    <g
       id="g222"
       transform="translate(-0.65045,0.88352)">
      <path
         style="fill:#1a1a1a;filter:url(#g)"
         inkscape:connector-curvature="0"
         id="path216"
         d="m 144.43,267.37 c -0.509,0.54321 -3.8204,-1.1044 -4.5515,-0.96449 -0.73169,0.14005 -3.2029,2.8943 -3.8774,2.5778 -0.67391,-0.31623 -0.13019,-3.9747 -0.48922,-4.6268 -0.3593,-0.6526 -3.7424,-2.1518 -3.6498,-2.891 0.0925,-0.73864 3.7399,-1.3521 4.2492,-1.895 0.50963,-0.54338 0.89,-4.2242 1.6216,-4.3646 0.73108,-0.14028 2.4416,3.1391 3.1154,3.4556 0.67427,0.31677 4.2925,-0.45891 4.6521,0.19353 0.35933,0.65195 -2.231,3.2921 -2.3238,4.0307 -0.0929,0.73915 1.7629,3.9406 1.2535,4.4842 z"
         transform="matrix(0.41092,0.079005,-0.079005,0.41092,23.706,-120.38)" />
      <path
         inkscape:connector-curvature="0"
         style="fill:url(#linearGradient947)"
         id="path218"
         d="m 144.43,267.37 c -0.509,0.54321 -3.8204,-1.1044 -4.5515,-0.96449 -0.73169,0.14005 -3.2029,2.8943 -3.8774,2.5778 -0.67391,-0.31623 -0.13019,-3.9747 -0.48922,-4.6268 -0.3593,-0.6526 -3.7424,-2.1518 -3.6498,-2.891 0.0925,-0.73864 3.7399,-1.3521 4.2492,-1.895 0.50963,-0.54338 0.89,-4.2242 1.6216,-4.3646 0.73108,-0.14028 2.4416,3.1391 3.1154,3.4556 0.67427,0.31677 4.2925,-0.45891 4.6521,0.19353 0.35933,0.65195 -2.231,3.2921 -2.3238,4.0307 -0.0929,0.73915 1.7629,3.9406 1.2535,4.4842 z"
         transform="matrix(0.41092,0.079005,-0.079005,0.41092,23.552,-120.62)" />
      <path
         inkscape:connector-curvature="0"
         style="fill:url(#linearGradient949)"
         id="path220"
         d="m 144.43,267.37 c -0.509,0.54321 -3.8204,-1.1044 -4.5515,-0.96449 -0.73169,0.14005 -3.2029,2.8943 -3.8774,2.5778 -0.67391,-0.31623 -0.13019,-3.9747 -0.48922,-4.6268 -0.3593,-0.6526 -3.7424,-2.1518 -3.6498,-2.891 0.0925,-0.73864 3.7399,-1.3521 4.2492,-1.895 0.50963,-0.54338 0.89,-4.2242 1.6216,-4.3646 0.73108,-0.14028 2.4416,3.1391 3.1154,3.4556 0.67427,0.31677 4.2925,-0.45891 4.6521,0.19353 0.35933,0.65195 -2.231,3.2921 -2.3238,4.0307 -0.0929,0.73915 1.7629,3.9406 1.2535,4.4842 z"
         transform="matrix(0.3508,0.067447,-0.067447,0.3508,28.882,-103.28)" />
    </g>
  </g>
  <g
     id="g234"
     transform="matrix(1.5482,0.61552,-0.61552,1.5482,-26.951,44.63)">
    <g
       id="g232"
       transform="translate(-0.65045,0.88352)">
      <path
         style="fill:#1a1a1a;filter:url(#g)"
         inkscape:connector-curvature="0"
         id="path226"
         d="m 144.43,267.37 c -0.509,0.54321 -3.8204,-1.1044 -4.5515,-0.96449 -0.73169,0.14005 -3.2029,2.8943 -3.8774,2.5778 -0.67391,-0.31623 -0.13019,-3.9747 -0.48922,-4.6268 -0.3593,-0.6526 -3.7424,-2.1518 -3.6498,-2.891 0.0925,-0.73864 3.7399,-1.3521 4.2492,-1.895 0.50963,-0.54338 0.89,-4.2242 1.6216,-4.3646 0.73108,-0.14028 2.4416,3.1391 3.1154,3.4556 0.67427,0.31677 4.2925,-0.45891 4.6521,0.19353 0.35933,0.65195 -2.231,3.2921 -2.3238,4.0307 -0.0929,0.73915 1.7629,3.9406 1.2535,4.4842 z"
         transform="matrix(0.41092,0.079005,-0.079005,0.41092,23.706,-120.38)" />
      <path
         inkscape:connector-curvature="0"
         style="fill:url(#f)"
         id="path228"
         d="m 144.43,267.37 c -0.509,0.54321 -3.8204,-1.1044 -4.5515,-0.96449 -0.73169,0.14005 -3.2029,2.8943 -3.8774,2.5778 -0.67391,-0.31623 -0.13019,-3.9747 -0.48922,-4.6268 -0.3593,-0.6526 -3.7424,-2.1518 -3.6498,-2.891 0.0925,-0.73864 3.7399,-1.3521 4.2492,-1.895 0.50963,-0.54338 0.89,-4.2242 1.6216,-4.3646 0.73108,-0.14028 2.4416,3.1391 3.1154,3.4556 0.67427,0.31677 4.2925,-0.45891 4.6521,0.19353 0.35933,0.65195 -2.231,3.2921 -2.3238,4.0307 -0.0929,0.73915 1.7629,3.9406 1.2535,4.4842 z"
         transform="matrix(0.41092,0.079005,-0.079005,0.41092,23.552,-120.62)" />
      <path
         inkscape:connector-curvature="0"
         style="fill:url(#e)"
         id="path230"
         d="m 144.43,267.37 c -0.509,0.54321 -3.8204,-1.1044 -4.5515,-0.96449 -0.73169,0.14005 -3.2029,2.8943 -3.8774,2.5778 -0.67391,-0.31623 -0.13019,-3.9747 -0.48922,-4.6268 -0.3593,-0.6526 -3.7424,-2.1518 -3.6498,-2.891 0.0925,-0.73864 3.7399,-1.3521 4.2492,-1.895 0.50963,-0.54338 0.89,-4.2242 1.6216,-4.3646 0.73108,-0.14028 2.4416,3.1391 3.1154,3.4556 0.67427,0.31677 4.2925,-0.45891 4.6521,0.19353 0.35933,0.65195 -2.231,3.2921 -2.3238,4.0307 -0.0929,0.73915 1.7629,3.9406 1.2535,4.4842 z"
         transform="matrix(0.3508,0.067447,-0.067447,0.3508,28.882,-103.28)" />
    </g>
  </g>
</svg>
