<?xml version="1.0" encoding="UTF-8" standalone="no"?>
<!-- Created with Inkscape (http://www.inkscape.org/) -->

<svg
   xmlns:dc="http://purl.org/dc/elements/1.1/"
   xmlns:cc="http://creativecommons.org/ns#"
   xmlns:rdf="http://www.w3.org/1999/02/22-rdf-syntax-ns#"
   xmlns:svg="http://www.w3.org/2000/svg"
   xmlns="http://www.w3.org/2000/svg"
   xmlns:sodipodi="http://sodipodi.sourceforge.net/DTD/sodipodi-0.dtd"
   xmlns:inkscape="http://www.inkscape.org/namespaces/inkscape"
   width="884.59827"
   height="542.55499"
   id="svg3596"
   version="1.1"
   inkscape:version="0.92.3 (2405546, 2018-03-11)"
   sodipodi:docname="capture-aliens-logo.svg"
   inkscape:export-filename="D:\workspace\ebabel-games\ebabel-games\assets\jdzyn\capture-aliens-logo2.png"
   inkscape:export-xdpi="29.372137"
   inkscape:export-ydpi="29.372137">
  <defs
     id="defs3598" />
  <sodipodi:namedview
     id="base"
     pagecolor="#ffffff"
     bordercolor="#666666"
     borderopacity="1.0"
     inkscape:pageopacity="0.0"
     inkscape:pageshadow="2"
     inkscape:zoom="0.35"
     inkscape:cx="168.918"
     inkscape:cy="273.64398"
     inkscape:document-units="px"
     inkscape:current-layer="g5623"
     showgrid="false"
     fit-margin-top="0"
     fit-margin-left="0"
     fit-margin-right="0"
     fit-margin-bottom="0"
     inkscape:window-width="1664"
     inkscape:window-height="963"
     inkscape:window-x="2154"
     inkscape:window-y="69"
     inkscape:window-maximized="0" />
  <metadata
     id="metadata3601">
    <rdf:RDF>
      <cc:Work
         rdf:about="">
        <dc:format>image/svg+xml</dc:format>
        <dc:type
           rdf:resource="http://purl.org/dc/dcmitype/StillImage" />
        <dc:title></dc:title>
      </cc:Work>
    </rdf:RDF>
  </metadata>
  <g
     inkscape:label="Layer 1"
     inkscape:groupmode="layer"
     id="layer1"
     transform="translate(93.238289,-263.45127)">
    <g
       transform="translate(-585,-78.262822)"
       style="display:inline;enable-background:new"
       id="g3547">
      <g
         inkscape:export-filename="/Users/nadjib/Repositories/alien-capture/media/JDZYN graphics/source title alienface.png"
         transform="translate(4.375)"
         inkscape:export-ydpi="90.029999"
         inkscape:export-xdpi="90.029999"
         id="g5623">
        <g
           id="g4569"
           inkscape:export-xdpi="29.372137"
           inkscape:export-ydpi="29.372137">
          <path
             style="display:inline;opacity:0.5;fill:#000000;fill-opacity:1;stroke:#000000;stroke-width:37.5;stroke-miterlimit:4;stroke-dasharray:none;enable-background:new"
             d="m 1342.2907,389.69731 -755.8314,230.30267 665.5367,230.3027 -65.31,-115.15136 z"
             id="path5141"
             inkscape:connector-curvature="0"
             sodipodi:nodetypes="ccccc"
             inkscape:export-filename="C:\Users\jdonini\Documents\DC\Starship Capture\g5623.png"
             inkscape:export-xdpi="60"
             inkscape:export-ydpi="60"
             transform="translate(-4.375,2.0000001e-6)" />
          <g
             id="g5629"
             inkscape:export-filename="C:\Users\jdonini\Documents\DC\Starship Capture\g5623.png"
             inkscape:export-xdpi="60"
             inkscape:export-ydpi="60"
             transform="translate(0,2.0000001e-6)"
             style="display:inline;enable-background:new">
            <path
               style="fill:#b7a5cc;fill-opacity:1;stroke:#ffffff;stroke-width:35;stroke-miterlimit:4;stroke-dasharray:none"
               d="M 1327.9157,369.69733 572.0843,600 1237.621,830.30267 1172.311,715.15134 Z"
               id="path4945"
               inkscape:connector-curvature="0"
               sodipodi:nodetypes="ccccc" />
            <path
               style="opacity:0.5;fill:#000000;fill-opacity:1;stroke:none"
               d="M 1332.9157,374.69733 577.0843,605 1242.621,835.30267 1177.311,720.15133 Z"
               id="path5627"
               inkscape:connector-curvature="0"
               sodipodi:nodetypes="ccccc" />
            <path
               sodipodi:nodetypes="ccccc"
               inkscape:connector-curvature="0"
               id="path4931"
               d="M 1327.9157,364.69733 572.0843,595 1237.621,825.30267 1172.311,710.15133 Z"
               style="fill:#b7a5cc;fill-opacity:1;stroke:none" />
          </g>
          <g
             id="g5561"
             inkscape:export-filename="C:\Users\jdonini\Documents\DC\Starship Capture\g5623.png"
             inkscape:export-xdpi="60"
             inkscape:export-ydpi="60"
             transform="translate(0,2.0000001e-6)"
             style="display:inline;enable-background:new">
            <text
               xml:space="preserve"
               style="font-style:normal;font-variant:normal;font-weight:normal;font-stretch:normal;line-height:0%;font-family:'Lobster Two';-inkscape-font-specification:'Lobster Two';text-align:center;letter-spacing:0px;word-spacing:0px;writing-mode:lr-tb;text-anchor:middle;opacity:0.5;fill:#000000;fill-opacity:1;stroke:none"
               x="845.9812"
               y="666.44"
               id="text4961"><tspan
                 sodipodi:role="line"
                 id="tspan4963"
                 x="845.9812"
                 y="666.44"
                 style="font-style:normal;font-variant:normal;font-weight:900;font-stretch:normal;font-size:161.3381958px;line-height:125%;font-family:Orbitron;-inkscape-font-specification:'Orbitron Heavy';text-align:center;writing-mode:lr-tb;text-anchor:middle;fill:#000000;fill-opacity:1">Capture</tspan></text>
            <text
               id="text4282"
               y="656.44"
               x="835.9812"
               style="font-style:normal;font-variant:normal;font-weight:normal;font-stretch:normal;line-height:0%;font-family:'Lobster Two';-inkscape-font-specification:'Lobster Two';text-align:center;letter-spacing:0px;word-spacing:0px;writing-mode:lr-tb;text-anchor:middle;fill:#f59195;fill-opacity:1;stroke:none"
               xml:space="preserve"><tspan
                 style="font-style:normal;font-variant:normal;font-weight:900;font-stretch:normal;font-size:161.3381958px;line-height:125%;font-family:Orbitron;-inkscape-font-specification:'Orbitron Heavy';text-align:center;writing-mode:lr-tb;text-anchor:middle;fill:#f59195;fill-opacity:1"
                 y="656.44"
                 x="835.9812"
                 id="tspan4284"
                 sodipodi:role="line">Capture</tspan></text>
          </g>
          <g
             id="g5567"
             inkscape:export-filename="C:\Users\jdonini\Documents\DC\Starship Capture\g5623.png"
             inkscape:export-xdpi="60"
             inkscape:export-ydpi="60"
             transform="translate(0,2.0000001e-6)"
             style="display:inline;enable-background:new">
            <text
               id="text4965"
               y="766.40125"
               x="926.06274"
               style="font-style:normal;font-variant:normal;font-weight:normal;font-stretch:normal;line-height:0%;font-family:'Lobster Two';-inkscape-font-specification:'Lobster Two';text-align:center;letter-spacing:0px;word-spacing:0px;writing-mode:lr-tb;text-anchor:middle;opacity:0.5;fill:#000000;fill-opacity:1;stroke:none"
               xml:space="preserve"><tspan
                 style="font-style:oblique;font-weight:normal;font-size:161.3381958px;line-height:1.25;-inkscape-font-specification:'Lobster Two Oblique';fill:#000000;fill-opacity:1"
                 id="tspan4967"
                 y="766.40125"
                 x="926.06274"
                 sodipodi:role="line">Aliens</tspan></text>
            <text
               xml:space="preserve"
               style="font-style:normal;font-variant:normal;font-weight:normal;font-stretch:normal;line-height:0%;font-family:'Lobster Two';-inkscape-font-specification:'Lobster Two';text-align:center;letter-spacing:0px;word-spacing:0px;writing-mode:lr-tb;text-anchor:middle;fill:#87cfc6;fill-opacity:1;stroke:none"
               x="921.06274"
               y="761.40125"
               id="text4286"><tspan
                 sodipodi:role="line"
                 x="921.06274"
                 y="761.40125"
                 id="tspan4290"
                 style="font-style:oblique;font-weight:normal;font-size:161.3381958px;line-height:1.25;-inkscape-font-specification:'Lobster Two Oblique';fill:#87cfc6;fill-opacity:1">Aliens</tspan></text>
          </g>
          <path
             style="font-style:normal;font-variant:normal;font-weight:normal;font-stretch:normal;font-size:174.59339905px;line-height:125%;font-family:AlienMushrooms;-inkscape-font-specification:AlienMushrooms;text-align:center;letter-spacing:0px;word-spacing:0px;writing-mode:lr-tb;text-anchor:middle;opacity:0.5;fill:#000000;fill-opacity:1;stroke:none"
             d="m 1352.8629,450.2097 c -2.0943,-9.4254 -5.2351,-14.1381 -9.4228,-14.13825 -3.4956,1.5e-4 -4.8063,4.1028 -3.9323,12.3081 -11.1733,3.3141 -32.5606,8.9886 -64.1617,17.0235 -10.827,-22.52205 -30.9941,-33.78315 -60.5013,-33.7833 -2.6163,-22.1757 -3.9243,-39.81195 -3.9243,-52.90875 0,-5.0616 0.1731,-9.5133 0.5196,-13.3551 7.3366,-1.21995 11.0052,-3.48975 11.0053,-6.8094 -10e-5,-1.9179 -1.4841,-3.4884 -4.4517,-4.71135 -2.9679,-1.22265 -6.9853,-1.5729 -12.0523,-1.05105 -10.2995,1.04985 -15.4491,3.6687 -15.4491,7.8564 0,3.6714 4.5396,5.41905 13.6188,5.24295 1.0495,4.8861 1.5744,11.08275 1.5745,18.58995 -10e-5,3.666 -0.2185,10.73775 -0.6553,21.2154 -0.4371,10.4781 -0.6555,19.2948 -0.6554,26.4504 -13.0968,1.22025 -24.4458,5.32305 -34.047,12.3081 -15.7128,-9.4254 -29.9416,-21.7335 -42.6867,-36.92415 3.6659,-4.36365 5.4987,-8.0295 5.4987,-10.9974 v 0 c 0,-3.1434 -1.7476,-4.45425 -5.2429,-3.93225 -3.4899,0.69825 -7.4168,3.405 -11.7806,8.12025 -4.7154,5.2377 -7.0731,9.6894 -7.0731,13.35495 0,2.6217 1.2228,3.9324 3.6684,3.93225 2.6162,1.5e-4 5.8451,-1.7475 9.6866,-5.24295 5.4135,3.14385 11.3517,8.03235 17.8147,14.6658 7.5074,7.6833 15.1001,15.4545 22.778,23.31345 -10.4753,10.64565 -15.2759,23.73975 -14.402,39.28185 0.522,8.9034 2.4429,17.5458 5.7624,25.9269 -13.2672,10.82145 -27.4081,19.2027 -42.423,25.1436 -2.9677,-5.23755 -5.9355,-7.8564 -8.9032,-7.8564 v 0 c -2.2698,0 -3.5805,1.56915 -3.9323,4.70745 -0.3516,3.4953 0.6954,7.8618 3.141,13.09935 3.6657,8.0295 7.4195,12.04425 11.2611,12.04425 v 0 c 2.0939,0 3.2288,-1.3959 3.4047,-4.18785 0.5274,-2.9679 -0.2584,-6.9852 -2.3577,-12.05235 4.1933,-3.3141 10.1315,-6.804 17.8146,-10.46985 16.5813,-8.0349 25.1357,-12.22545 25.6632,-12.5718 10.6509,19.5543 27.7596,30.7275 51.3263,33.51945 1.3959,14.49255 0.7857,29.07045 -1.8303,43.73362 -9.0792,-0.34638 -13.6188,1.48917 -13.6188,5.50665 0,4.53956 5.1496,7.15835 15.4491,7.85639 11.0025,0.86844 16.5039,-1.05236 16.504,-5.76242 -1e-4,-3.49531 -4.2787,-5.85303 -12.8356,-7.07314 -0.176,-4.53963 0.261,-10.65105 1.3107,-18.3342 2.2698,-16.23495 3.4047,-24.7014 3.4047,-25.39935 h 0.2638 c 20.0763,0 36.3992,-7.24635 48.9684,-21.7389 17.9825,7.50735 34.569,18.1584 49.7598,31.953 -2.6163,4.36365 -3.9244,8.0295 -3.9241,10.99725 -3e-4,3.84165 1.7448,5.32545 5.2348,4.4517 3.6656,-0.87375 7.3314,-4.27845 10.9974,-10.2141 3.1434,-4.88595 4.7153,-9.1644 4.7154,-12.8355 v 0 c -10e-5,-3.1383 -1.2231,-4.70745 -3.6684,-4.70745 -2.4405,0 -5.4084,2.0061 -8.9034,6.01815 -6.1116,-2.4456 -13.0062,-6.63615 -20.6839,-12.5718 -9.2552,-6.97995 -18.5102,-14.05035 -27.765,-21.2115 6.8091,-10.99725 9.8649,-23.0442 9.1671,-36.14085 -0.3465,-5.7597 -1.3056,-11.4342 -2.8773,-17.0235 18.3288,-8.55165 39.1032,-14.13825 62.3236,-16.7598 2.099,6.4632 4.7178,9.69465 7.8564,9.69465 1.9232,0 3.3218,-1.5717 4.196,-4.7154 0.8734,-3.31935 0.6976,-7.59795 -0.5276,-12.83565 z m -134.3497,53.4282 c -7.8539,13.0914 -17.37,19.63695 -28.5483,19.63695 -6.6338,0 -11.8713,-2.70405 -15.7128,-8.11215 -6.8094,-9.6066 -9.8625,-17.8146 -9.1592,-24.62415 1.3959,-13.26705 7.5926,-19.9005 18.59,-19.90065 10.8268,1.5e-4 21.4777,4.3638 31.9531,13.09125 4.7099,3.8418 7.065,7.07325 7.0652,9.69465 -2e-4,2.26995 -1.3962,5.6745 -4.188,10.2141 z m 34.8301,-2.88525 c -5.584,-3.8415 -8.376,-8.1174 -8.3758,-12.82755 -2e-4,-2.6214 0.871,-5.50395 2.6134,-8.64765 4.0173,-7.3314 8.1227,-10.9971 12.3161,-10.99725 5.2375,1.5e-4 7.9416,5.1498 8.1121,15.44895 0.3516,13.4484 -2.0914,20.1726 -7.3288,20.17245 -1.9236,1.5e-4 -4.3692,-1.04955 -7.337,-3.14895 z"
             id="path4969"
             inkscape:connector-curvature="0" />
          <path
             inkscape:connector-curvature="0"
             id="path5075-7"
             d="m 1347.863,448.06683 c -2.0943,-9.42539 -5.2351,-14.1381 -9.4228,-14.13825 -3.4956,1.5e-4 -4.8063,4.10281 -3.9323,12.3081 -11.1733,3.3141 -32.5606,8.9886 -64.1617,17.02351 -10.827,-22.52205 -30.9941,-33.78315 -60.5013,-33.7833 -2.6163,-22.1757 -3.9243,-39.81195 -3.9243,-52.90875 0,-5.0616 0.1731,-9.5133 0.5196,-13.3551 7.3366,-1.21995 11.0052,-3.48975 11.0053,-6.8094 -10e-5,-1.9179 -1.4841,-3.4884 -4.4517,-4.71135 -2.9679,-1.22265 -6.9853,-1.5729 -12.0523,-1.05105 -10.2995,1.04985 -15.4491,3.6687 -15.4491,7.8564 0,3.6714 4.5396,5.41905 13.6188,5.24295 1.0495,4.8861 1.5744,11.08275 1.5745,18.58995 -10e-5,3.666 -0.2185,10.73775 -0.6553,21.2154 -0.4371,10.4781 -0.6555,19.2948 -0.6554,26.4504 -13.0968,1.22025 -24.4458,5.32305 -34.047,12.3081 -15.7128,-9.4254 -29.9416,-21.7335 -42.6867,-36.92415 3.6659,-4.36365 5.4987,-8.0295 5.4987,-10.9974 v 0 c 0,-3.1434 -1.7476,-4.45425 -5.2429,-3.93225 -3.4899,0.69825 -7.4168,3.405 -11.7806,8.12025 -4.7154,5.2377 -7.0731,9.6894 -7.0731,13.35495 0,2.6217 1.2228,3.9324 3.6684,3.93225 2.6162,1.5e-4 5.8451,-1.7475 9.6866,-5.24295 5.4135,3.14385 11.3517,8.03235 17.8147,14.6658 7.5074,7.6833 15.1001,15.4545 22.778,23.31345 -10.4753,10.64565 -15.2759,23.73975 -14.402,39.28185 0.522,8.9034 2.4429,17.5458 5.7624,25.92689 -13.2672,10.82145 -27.4081,19.20271 -42.423,25.1436 -2.9677,-5.23755 -5.9355,-7.8564 -8.9032,-7.8564 v 0 c -2.2698,0 -3.5805,1.56915 -3.9323,4.70745 -0.3516,3.4953 0.6954,7.8618 3.141,13.09935 3.6657,8.0295 7.4195,12.04425 11.2611,12.04425 v 0 c 2.0939,0 3.2288,-1.3959 3.4047,-4.18785 0.5274,-2.9679 -0.2584,-6.9852 -2.3577,-12.05235 4.1933,-3.3141 10.1315,-6.804 17.8146,-10.46985 16.5813,-8.0349 25.1357,-12.22545 25.6632,-12.5718 10.6509,19.5543 27.7596,30.7275 51.3263,33.51945 1.3959,14.49255 0.7857,29.07045 -1.8303,43.73363 -9.0792,-0.34638 -13.6188,1.48917 -13.6188,5.50665 0,4.53955 5.1496,7.15834 15.4491,7.85638 11.0025,0.86844 16.5039,-1.05235 16.504,-5.76241 -10e-5,-3.49532 -4.2787,-5.85303 -12.8356,-7.07315 -0.176,-4.53963 0.261,-10.65105 1.3107,-18.3342 2.2698,-16.23495 3.4047,-24.7014 3.4047,-25.39935 h 0.2638 c 20.0763,0 36.3992,-7.24635 48.9684,-21.7389 17.9825,7.50735 34.569,18.1584 49.7598,31.953 -2.6163,4.36365 -3.9244,8.0295 -3.9241,10.99725 -3e-4,3.84165 1.7448,5.32545 5.2348,4.4517 3.6656,-0.87375 7.3314,-4.27845 10.9974,-10.2141 3.1434,-4.88595 4.7153,-9.1644 4.7154,-12.8355 v 0 c -10e-5,-3.1383 -1.2231,-4.70745 -3.6684,-4.70745 -2.4405,0 -5.4084,2.0061 -8.9034,6.01815 -6.1116,-2.4456 -13.0062,-6.63615 -20.6839,-12.5718 -9.2552,-6.97995 -18.5102,-14.05035 -27.765,-21.2115 6.8091,-10.99725 9.8649,-23.0442 9.1671,-36.14085 -0.3465,-5.7597 -1.3056,-11.4342 -2.8773,-17.0235 18.3288,-8.55165 39.1032,-14.13825 62.3236,-16.7598 2.099,6.4632 4.7178,9.69465 7.8564,9.69465 1.9232,0 3.3218,-1.5717 4.196,-4.7154 0.8734,-3.31935 0.6976,-7.59794 -0.5276,-12.83565 z m -134.3497,53.42821 c -7.8539,13.0914 -17.37,19.63695 -28.5483,19.63695 -6.6338,0 -11.8713,-2.70405 -15.7128,-8.11215 -6.8094,-9.6066 -9.8625,-17.81461 -9.1592,-24.62415 1.3959,-13.26705 7.5926,-19.90051 18.59,-19.90066 10.8268,1.5e-4 21.4777,4.36381 31.9531,13.09125 4.7099,3.8418 7.065,7.07325 7.0652,9.69465 -2e-4,2.26995 -1.3962,5.6745 -4.188,10.21411 z m 34.8301,-2.88526 c -5.584,-3.8415 -8.376,-8.1174 -8.3758,-12.82755 -2e-4,-2.6214 0.871,-5.50395 2.6134,-8.64764 4.0173,-7.3314 8.1227,-10.99711 12.3161,-10.99725 5.2375,1.4e-4 7.9416,5.1498 8.1121,15.44895 0.3516,13.4484 -2.0914,20.1726 -7.3288,20.17245 -1.9236,1.5e-4 -4.3692,-1.04955 -7.337,-3.14895 z"
             style="font-style:normal;font-variant:normal;font-weight:normal;font-stretch:normal;font-size:174.59339905px;line-height:125%;font-family:AlienMushrooms;-inkscape-font-specification:AlienMushrooms;text-align:center;letter-spacing:0px;word-spacing:0px;writing-mode:lr-tb;text-anchor:middle;fill:#85cae6;fill-opacity:1;stroke:none" />
        </g>
      </g>
    </g>
  </g>
</svg>
